<svg width="3962" height="995" viewBox="0 0 3962 995" fill="none" xmlns="http://www.w3.org/2000/svg">
<path d="M1435.18 423.492C1423.69 376.595 1394.25 342.888 1336.1 342.888C1250.65 342.888 1215.47 419.828 1215.47 497.5C1215.47 575.172 1251.37 652.112 1336.1 652.112C1397.84 652.112 1431.59 605.216 1437.33 545.862H1505.54C1499.8 643.319 1432.31 710 1336.1 710C1216.91 710 1145.83 613.276 1145.83 497.5C1145.83 381.724 1216.91 285 1336.1 285C1425.85 285.733 1496.21 336.293 1504.83 423.492H1435.18ZM1547.19 553.19C1547.19 463.06 1600.32 398.578 1692.23 398.578C1784.13 398.578 1837.26 463.06 1837.26 553.19C1837.26 643.319 1784.13 708.535 1692.23 708.535C1600.32 708.535 1547.19 643.319 1547.19 553.19ZM1774.08 553.19C1774.08 502.629 1748.95 449.871 1692.23 449.871C1635.5 449.871 1610.37 502.629 1610.37 553.19C1610.37 603.75 1635.5 657.242 1692.23 657.242C1748.95 657.242 1774.08 604.483 1774.08 553.19ZM1891.83 294.526H1955.01V356.078H1891.83V294.526ZM1891.83 406.638H1955.01V700.474H1891.83V406.638ZM2024.66 406.638H2084.97V449.871L2086.41 451.336C2105.08 419.095 2138.82 398.578 2176.16 399.31C2238.62 399.31 2278.11 433.75 2278.11 498.966V700.474H2214.93V515.819C2213.49 469.655 2196.26 449.871 2158.93 449.871C2116.56 449.871 2089.28 483.578 2089.28 526.81V700.474H2026.1V406.638H2024.66ZM2700.3 700.474H2655.78L2645.01 652.845C2607.68 696.078 2573.93 710 2525.11 710C2405.92 710 2334.84 613.276 2334.84 497.5C2334.84 381.724 2405.92 285 2525.11 285C2611.98 285 2685.22 331.897 2695.27 423.492H2627.06C2620.6 370 2574.65 342.888 2524.39 342.888C2438.95 342.888 2403.76 419.828 2403.76 497.5C2403.76 575.172 2439.66 652.112 2524.39 652.112C2595.47 653.578 2634.96 609.612 2635.68 540.733H2530.13V486.509H2699.58L2700.3 700.474ZM2816.61 570.043C2816.61 616.207 2841.03 657.242 2894.16 657.242C2930.78 657.242 2953.03 641.121 2964.52 608.147H3024.83C3011.19 672.629 2957.34 708.535 2894.16 708.535C2803.69 708.535 2753.43 644.052 2753.43 553.923C2753.43 470.388 2807.28 398.578 2892.72 398.578C2983.19 398.578 3039.19 482.112 3028.42 570.043H2816.61ZM2964.52 527.543C2962.37 486.509 2935.08 449.871 2892 449.871C2848.21 449.871 2818.05 483.578 2815.9 527.543H2964.52ZM3271.11 504.828C3266.08 468.922 3240.24 449.871 3205.05 449.871C3172.03 449.871 3126.07 467.457 3126.07 556.853C3126.07 605.948 3146.9 657.242 3202.18 657.242C3238.8 657.242 3264.65 632.328 3270.39 589.828H3333.58C3322.09 666.035 3276.14 707.802 3201.46 707.802C3111 707.802 3061.45 642.586 3061.45 556.121C3061.45 467.457 3108.84 397.845 3203.62 397.845C3270.39 397.845 3327.11 432.285 3333.58 504.095H3271.11V504.828ZM3388.14 294.526H3451.33V525.345L3566.21 406.638H3644.47L3533.9 514.354L3654.52 700.474H3576.98L3488.66 557.586L3450.61 594.957V700.474H3387.43V294.526H3388.14ZM3671.75 553.19C3671.75 463.06 3724.89 398.578 3816.79 398.578C3909.41 398.578 3961.83 463.06 3961.83 553.19C3961.83 643.319 3908.69 708.535 3816.79 708.535C3724.89 708.535 3671.75 643.319 3671.75 553.19ZM3899.36 553.19C3899.36 502.629 3874.23 449.871 3817.51 449.871C3760.79 449.871 3735.66 502.629 3735.66 553.19C3735.66 603.75 3760.79 657.242 3817.51 657.242C3874.23 657.242 3899.36 604.483 3899.36 553.19Z" fill="white"/>
<path fill-rule="evenodd" clip-rule="evenodd" d="M514.59 994.726C781.824 986.143 995.826 766.81 995.826 497.493C995.826 222.735 773.088 0 498.326 0C223.565 0 0.826172 222.735 0.826172 497.493C7.4113 612.073 39.9793 709.449 92.9091 786.877C102.11 801.122 113.618 816.064 127.25 831.129C177.337 888.133 240.438 931.267 313.423 959.002C372.695 982.791 440.542 997.203 514.59 994.726ZM514.59 994.726C545.167 993.703 576.802 989.8 609.326 982.489C609.326 982.489 507.046 685.622 702.831 583.62C735.827 566.474 765.867 548.017 790.666 528.951C799.976 522.742 808.951 515.965 817.428 508.418C818.895 507.298 820.351 506.157 821.795 504.994H821.181C819.941 506.153 818.69 507.294 817.428 508.418C813.525 511.397 809.544 514.23 805.494 516.934C886.728 447.318 893.484 371.667 718.32 322.916C687.727 314.088 656.049 301.386 623.796 288.453L623.796 288.452C621.754 287.634 619.711 286.814 617.665 285.995C615.824 277.234 607.845 266.596 592.501 252.829C570.406 232.804 528.058 233.43 491.847 242.191C451.953 232.804 412.06 229.049 374.007 238.436C172.813 295.082 159.459 413.891 144.293 548.815C136.003 622.566 127.172 701.132 86.8262 776.992C88.7257 780.244 90.7542 783.541 92.9091 786.877C103.548 802.441 115.011 817.199 127.25 831.129C170.159 878.547 234.114 927.169 313.423 959.002C369.665 980.374 431.777 992.602 498.326 994.987C503.768 994.987 509.19 994.9 514.59 994.726ZM805.494 516.934C800.794 520.962 795.844 524.969 790.666 528.951C776.654 538.296 761.884 546.352 746.917 553.805C719.913 566.946 692.294 576.959 663.448 585.094C634.602 592.603 604.528 598.235 574.455 595.732C543.767 593.229 513.08 582.591 492.826 559.437L494.054 558.185C518.604 574.456 547.45 580.088 575.682 581.339C604.528 581.965 633.374 580.088 661.607 574.456C689.839 568.198 718.071 559.437 745.076 548.173C765.961 539.462 786.479 529.627 805.494 516.934ZM756.986 462.465C756.986 479.361 736.732 488.122 725.071 476.232C713.41 464.342 721.388 443.692 737.96 443.066C748.393 443.692 756.986 451.827 756.986 462.465ZM513.328 374.23C513.328 409.9 491.847 442.44 459.318 456.207C426.79 469.974 389.351 462.465 364.188 436.808C339.024 411.151 331.659 372.979 345.162 339.812C358.664 306.646 390.579 284.744 425.562 284.744C448.885 284.744 470.98 294.131 486.937 310.401C504.122 327.923 513.328 350.451 513.328 374.23ZM449.774 431.773C473.096 422.386 487.826 399.232 487.826 374.201C487.826 339.783 460.207 311.624 425.837 310.998C401.288 310.998 378.579 326.642 369.373 349.796C360.167 373.576 365.076 399.858 382.875 418.006C400.674 436.153 427.065 441.16 449.774 431.773Z" fill="white"/>
</svg>
