<svg width="5776" height="995" viewBox="0 0 5776 995" fill="none" xmlns="http://www.w3.org/2000/svg">
<g clip-path="url(#clip0_5186_3317)">
<path d="M849.077 594.878C831.797 605.486 811.639 607.413 796.279 598.735C777.082 587.165 765.562 561.135 765.562 525.459V416.511C765.562 364.447 745.405 326.847 710.846 317.204C652.29 299.85 608.134 372.16 591.816 399.157L488.143 565.954V360.59C487.183 313.347 471.825 285.388 443.026 276.709C423.827 270.926 395.031 273.818 367.192 316.241L135.85 688.402C105.132 629.588 88.8134 564.027 88.8134 497.5C88.8134 272.853 268.319 90.6298 488.143 90.6298C707.967 90.6298 887.473 272.853 887.473 497.5V498.465V499.429C889.394 542.816 875.955 577.524 849.077 594.878ZM975.786 497.5V496.535V495.571C974.826 222.718 755.962 0 488.143 0C219.363 0 0.5 222.718 0.5 497.5C0.5 771.317 219.363 995 488.143 995C611.973 995 729.084 947.757 819.318 861.947C837.557 844.593 838.517 816.633 821.239 798.314C804.919 779.996 777.082 779.031 758.844 795.422C758.844 795.422 758.844 795.422 757.883 796.385C684.928 865.804 587.016 905.333 486.224 905.333C368.153 905.333 262.559 853.271 189.606 770.353L397.91 434.83V590.059C397.91 664.297 426.708 688.402 450.705 695.15C474.704 701.899 511.182 697.078 550.538 634.41L664.771 448.328C668.61 442.544 671.489 436.76 675.328 432.903V527.389C675.328 596.807 703.167 652.729 751.163 679.723C794.361 704.791 849.077 701.899 894.192 673.939C949.868 637.302 979.625 573.667 975.786 497.5ZM1655.42 327.809C1666.93 334.56 1677.49 350.949 1677.49 365.412C1677.49 388.552 1658.3 407.835 1636.22 407.835C1630.46 407.835 1625.66 405.906 1620.86 404.941C1594.94 385.66 1562.3 373.125 1527.75 373.125C1446.15 373.125 1390.48 439.652 1390.48 522.567C1390.48 605.486 1447.11 671.047 1527.75 671.047C1568.06 671.047 1604.54 654.656 1631.42 628.624C1638.14 623.802 1646.78 620.91 1655.42 620.91C1677.49 620.91 1694.77 638.264 1694.77 660.44C1694.77 674.902 1686.13 687.437 1675.57 694.185C1636.22 727.931 1583.42 750.107 1528.71 750.107C1403.92 750.107 1302.16 646.942 1302.16 519.676C1302.16 392.409 1403.92 289.244 1528.71 289.244C1574.78 288.28 1618.94 302.742 1655.42 327.809ZM1883.88 424.225C1969.31 424.225 2040.35 496.535 2040.35 586.202C2040.35 674.904 1968.35 751.071 1883.88 751.071C1794.6 751.071 1720.69 675.867 1720.69 586.202C1720.69 496.535 1794.6 424.225 1883.88 424.225ZM1882.92 671.047C1920.35 671.047 1952.03 635.372 1952.03 587.165C1952.03 538.959 1920.35 508.105 1882.92 508.105C1842.6 508.105 1809 537.994 1809 587.165C1809 634.41 1842.6 671.047 1882.92 671.047ZM2094.1 700.934V473.397C2094.1 448.328 2113.3 428.081 2138.26 428.081C2162.26 428.081 2182.41 448.328 2182.41 473.397V700.934C2182.41 726.004 2162.26 746.25 2138.26 746.25C2114.26 746.25 2094.1 725.039 2094.1 700.934ZM2087.38 342.271C2087.38 312.385 2110.42 289.244 2138.26 289.244C2167.05 289.244 2190.11 313.347 2190.11 342.271C2190.11 371.198 2167.05 394.336 2138.26 394.336C2109.46 393.371 2087.38 370.233 2087.38 342.271ZM2351.36 577.524V700.934C2351.36 726.004 2331.2 746.25 2307.21 746.25C2283.2 746.25 2263.04 726.004 2263.04 700.934V462.79C2263.04 443.508 2278.4 428.081 2297.61 428.081C2316.8 428.081 2331.2 444.471 2331.2 462.79C2366.72 429.046 2398.41 424.225 2428.15 424.225C2516.47 424.225 2555.83 490.751 2555.83 566.919V700.934C2555.83 726.004 2535.67 746.25 2511.66 746.25C2487.68 746.25 2467.52 726.004 2467.52 700.934V577.524C2467.52 538.959 2462.71 506.178 2407.04 506.178C2367.69 506.178 2351.36 538.959 2351.36 577.524ZM2841.9 624.767C2831.32 624.767 2824.61 619.948 2818.84 613.197L2716.14 501.357V700.934C2716.14 726.004 2695.98 746.25 2671.99 746.25C2647.98 746.25 2627.82 726.004 2627.82 700.934V305.634C2630.7 298.885 2637.42 294.066 2644.15 294.066C2651.83 294.066 2658.53 300.814 2663.34 305.634L2827.49 490.751C2832.29 496.535 2838.05 499.429 2841.9 499.429C2844.77 499.429 2851.48 496.535 2856.28 490.751L3020.43 305.634C3025.24 300.814 3030.99 294.066 3039.64 294.066C3047.32 294.066 3054.03 298.885 3055.95 305.634V700.934C3055.95 726.004 3036.74 746.25 3011.8 746.25C2987.79 746.25 2967.63 726.004 2967.63 700.934V501.357L2864.93 613.197C2857.25 619.948 2850.53 624.767 2841.9 624.767ZM3266.18 671.047C3305.52 671.047 3339.14 635.372 3339.14 587.165C3339.14 538.959 3304.57 507.141 3266.18 507.141C3227.78 507.141 3196.09 539.922 3196.09 587.165C3196.09 633.445 3226.81 671.047 3266.18 671.047ZM3360.25 711.542L3358.32 700.934C3341.04 734.68 3286.34 750.107 3251.77 750.107C3169.23 750.107 3107.78 674.904 3107.78 585.237C3107.78 496.535 3170.18 423.26 3256.57 423.26C3270.98 423.26 3320.88 427.117 3359.3 472.432L3361.2 461.827C3361.2 442.544 3375.61 427.117 3394.81 427.117C3414 427.117 3429.36 443.508 3429.36 461.827V710.577C3429.36 729.858 3414 745.285 3394.81 745.285C3374.65 746.25 3360.25 729.861 3360.25 711.542ZM3672.22 506.178H3662.62C3606.94 509.07 3596.39 540.886 3596.39 577.524V700.934C3596.39 726.004 3576.23 746.25 3552.24 746.25C3528.23 746.25 3508.07 726.004 3508.07 700.934V462.79C3508.07 443.508 3523.43 428.081 3542.64 428.081C3561.82 428.081 3576.23 444.471 3576.23 462.79C3608.87 431.938 3635.75 425.189 3662.62 424.225H3671.27C3692.38 424.225 3711.59 442.544 3711.59 465.684C3712.54 486.895 3693.33 506.178 3672.22 506.178ZM4012.99 679.723C4016.84 686.472 4019.72 693.223 4019.72 700.934C4019.72 724.074 3998.6 745.285 3975.57 745.285C3960.21 745.285 3946.76 733.715 3936.2 720.218L3834.45 601.627V699.972C3834.45 725.039 3814.29 745.285 3790.3 745.285C3766.29 745.285 3746.13 725.039 3746.13 699.972V338.415C3746.13 313.347 3765.34 293.101 3790.3 293.101C3815.24 293.101 3834.45 313.347 3834.45 338.415V564.027L3936.2 451.222C3946.76 439.652 3959.24 427.117 3974.6 427.117C3996.68 427.117 4016.84 447.365 4016.84 470.503C4016.84 477.254 4014.91 484.965 4011.09 490.751L3930.45 579.453L4012.99 679.723ZM4185.79 507.141C4161.78 507.141 4122.44 519.675 4122.44 557.278H4250.1C4249.15 519.675 4208.83 507.141 4185.79 507.141ZM4300.98 614.162H4122.44C4122.44 667.191 4173.31 675.867 4195.38 675.867C4211.71 675.867 4234.74 672.975 4252.98 664.297C4258.73 660.44 4267.38 657.548 4276.02 657.548C4295.22 657.548 4311.53 673.939 4311.53 694.185C4311.53 707.683 4302.9 719.253 4292.35 726.004C4265.46 746.25 4229.94 751.071 4196.35 751.071C4107.08 751.071 4033.15 702.864 4033.15 590.059C4033.15 501.357 4078.27 424.225 4183.87 424.225C4269.29 424.225 4333.62 480.146 4335.54 579.453C4335.54 597.772 4320.18 614.162 4300.98 614.162ZM4546.72 750.107H4522.71C4455.53 750.107 4416.16 720.218 4416.16 615.126V506.178H4393.12C4372.01 506.178 4353.78 486.895 4353.78 465.684C4353.78 442.544 4372.96 424.225 4393.12 424.225H4416.16V340.344C4416.16 315.277 4435.37 295.028 4460.33 295.028C4484.32 295.028 4504.48 315.277 4504.48 340.344V424.225H4540.97C4562.08 424.225 4580.31 442.544 4580.31 465.684C4580.31 486.895 4561.13 506.178 4540.97 506.178H4504.48V597.772C4504.48 658.513 4507.35 671.047 4534.24 671.047H4546.72C4567.83 671.047 4586.07 688.402 4586.07 710.577C4586.07 731.788 4567.83 750.107 4546.72 750.107ZM4973.88 327.809C4985.41 334.56 4995.96 350.949 4995.96 365.412C4995.96 388.552 4976.75 407.835 4954.69 407.835C4948.92 407.835 4944.14 405.906 4939.33 404.941C4913.42 385.66 4880.78 373.125 4846.22 373.125C4764.63 373.125 4708.95 439.652 4708.95 522.567C4708.95 605.486 4765.58 671.047 4846.22 671.047C4886.53 671.047 4923 654.656 4949.89 628.624C4956.62 623.802 4965.25 620.91 4973.88 620.91C4995.96 620.91 5013.25 638.264 5013.25 660.44C5013.25 674.902 5004.59 687.437 4994.04 694.185C4954.69 727.931 4901.89 750.107 4847.17 750.107C4722.38 750.107 4620.63 646.942 4620.63 519.676C4620.63 392.409 4722.38 289.244 4847.17 289.244C4893.26 288.28 4938.36 302.742 4973.88 327.809ZM5197.56 671.047C5236.9 671.047 5270.5 635.372 5270.5 587.165C5270.5 538.959 5235.95 507.141 5197.56 507.141C5158.19 507.141 5127.48 539.922 5127.48 587.165C5127.48 633.445 5159.14 671.047 5197.56 671.047ZM5291.63 711.542L5289.7 700.934C5272.42 734.68 5217.7 750.107 5183.15 750.107C5100.59 750.107 5039.16 674.904 5039.16 585.237C5039.16 496.535 5101.56 423.26 5187.95 423.26C5202.34 423.26 5252.26 427.117 5290.66 472.432L5292.58 461.827C5292.58 442.544 5306.99 427.117 5326.17 427.117C5345.38 427.117 5360.74 443.508 5360.74 461.827V710.577C5360.74 729.858 5345.38 745.285 5326.17 745.285C5306.01 746.25 5291.63 729.861 5291.63 711.542ZM5601.68 671.047C5641.03 671.047 5671.76 633.445 5671.76 587.165C5671.76 538.959 5640.07 507.141 5601.68 507.141C5562.31 507.141 5528.72 538.959 5528.72 587.165C5528.72 635.372 5562.31 671.047 5601.68 671.047ZM5528.72 724.074V836.879C5528.72 861.947 5508.56 882.195 5484.57 882.195C5460.56 882.195 5440.4 861.947 5440.4 836.879V462.79C5440.4 443.508 5455.76 428.081 5474.97 428.081C5494.18 428.081 5508.56 444.471 5508.56 466.646C5541.2 432.903 5581.52 424.225 5612.24 424.225C5697.68 424.225 5761.03 496.535 5761.03 586.202C5761.03 674.904 5700.55 751.071 5617.04 751.071C5591.12 750.107 5552.73 742.393 5528.72 724.074Z" fill="white"/>
</g>
<defs>
<clipPath id="clip0_5186_3317">
<rect width="5775.33" height="995" fill="white" transform="translate(0.5)"/>
</clipPath>
</defs>
</svg>
