<svg width="4132" height="995" viewBox="0 0 4132 995" fill="none" xmlns="http://www.w3.org/2000/svg">
<g clip-path="url(#clip0_5186_3331)">
<mask id="mask0_5186_3331" style="mask-type:luminance" maskUnits="userSpaceOnUse" x="0" y="0" width="4132" height="995">
<path d="M4131.91 0H0.914062V995H4131.91V0Z" fill="white"/>
</mask>
<g mask="url(#mask0_5186_3331)">
<path fill-rule="evenodd" clip-rule="evenodd" d="M989.631 497.567C989.631 772.364 768.298 995.132 495.271 995.132C222.245 995.132 0.914062 772.364 0.914062 497.567C0.914062 222.768 222.245 0 495.271 0C768.298 0 989.631 222.768 989.631 497.567ZM216.603 357.386L249.322 240C249.322 240 572.827 241.062 633.12 241.062C693.413 241.062 855.694 256.731 855.694 406.388C855.694 571.711 698.693 610.752 639.321 610.752C606.074 610.752 524.933 612.344 524.933 612.344L488.52 756.024H335.74L370.834 615.799H131.901L170.426 500.536C170.426 500.536 586.416 501.598 620.718 500.536C655.021 499.472 708.06 491.108 709.115 421.791C710.566 327.642 567.418 332.554 554.224 416.612C545.91 469.728 545.91 483.007 545.91 483.007H410.414L436.802 357.386H216.603Z" fill="white"/>
<path d="M1391.37 345.391H1508.39L1466.44 497.567H1595.74L1637.56 345.391H1751.42L1642.31 744.825H1535.18L1571.85 589.99H1439.65L1395.46 744.825H1283.71L1391.37 345.391Z" fill="white"/>
<path d="M1751.42 439.668H1861.19L1866.6 619.201L1968.98 439.668H2080.07L1902.62 721.45C1902.62 721.45 1844.96 826.885 1757.49 830.337C1717.25 830.337 1698.38 823.301 1678.33 807.366C1690.2 788.377 1712.77 744.821 1712.77 744.821C1721.07 751.226 1730.89 755.342 1741.25 756.764C1751.62 758.185 1762.17 756.859 1771.87 752.922C1792.98 744.821 1785.06 712.287 1785.06 712.287L1751.42 439.668Z" fill="white"/>
<path d="M3803.27 439.668H3913.04L3918.44 619.201L4020.83 439.668H4131.91L3954.45 721.45C3954.45 721.45 3896.82 826.885 3809.33 830.337C3769.1 830.337 3750.24 823.301 3730.17 807.366C3742.04 788.377 3764.6 744.821 3764.6 744.821C3772.91 751.226 3782.73 755.342 3793.09 756.764C3803.47 758.185 3814.02 756.859 3823.71 752.922C3844.82 744.821 3837.58 712.287 3837.58 712.287L3803.27 439.668Z" fill="white"/>
<path d="M2326.26 439.669C2303.91 431.097 2279.41 430.104 2256.44 436.837C2233.49 443.573 2213.33 457.67 2199.08 476.983C2202.04 464.695 2204.23 452.232 2205.68 439.669H2109.62L2004.07 830.338H2109.62L2145.51 693.697C2145.51 693.697 2173.47 740.838 2223.09 744.822C2250.3 747.396 2277.68 742.043 2301.97 729.4C2326.23 716.759 2346.39 697.359 2360.04 673.513C2406.48 590.253 2414.39 472.203 2326.26 439.669ZM2278.37 613.891C2261.87 650.806 2224.15 669.663 2194.06 656.118C2163.98 642.573 2152.63 601.54 2169.13 564.758C2185.61 527.975 2223.35 508.854 2253.43 522.531C2283.52 536.208 2294.72 577.108 2278.37 613.891Z" fill="white"/>
<path d="M2595.55 439.804C2571.46 438.674 2547.38 442.529 2524.83 451.127C2502.27 459.727 2481.7 472.887 2464.37 489.798C2447.07 506.709 2433.38 527.011 2424.19 549.45C2414.98 571.89 2410.43 595.99 2410.82 620.266C2410.82 712.157 2529.58 808.429 2670.21 703.792C2655.83 683.656 2640.06 664.576 2622.97 646.692C2585.13 684.803 2494.87 681.614 2500.15 613.892H2701.61C2701.61 613.892 2766.65 447.506 2595.55 439.804ZM2632.75 571.001H2508.73C2520.87 488.405 2643.82 476.188 2632.75 571.001Z" fill="white"/>
<path d="M2780.77 439.67L2704.38 737.65H2803.59C2803.59 737.65 2824.31 600.611 2867.46 570.999C2892.98 550.512 2925.49 540.971 2957.95 544.441C2965.09 505.666 2985.53 433.959 2985.53 433.959C2957.95 428.781 2909.14 439.801 2868.91 492.121C2876.83 465.563 2883.16 439.801 2883.16 439.801L2780.77 439.67Z" fill="white"/>
<path d="M3042.93 346.98L3018.12 435.817H3184.77L3164.85 531.159H3267.35C3267.35 531.159 3267.35 521.069 3273.68 481.232C3283.31 417.491 3392.42 413.773 3390.97 485.082C3390.17 538.198 3350.07 543.908 3324.08 544.704C3298.1 545.502 2982.63 544.438 2982.63 544.438L2953.48 631.682H3134.48L3108.1 737.916H3223.94L3251.38 629.16C3251.38 629.16 3312.87 627.964 3338.07 627.964C3382.93 627.964 3501.8 598.484 3501.8 473.263C3501.8 359.993 3378.97 348.043 3333.31 348.043L3042.93 346.98Z" fill="white"/>
<path d="M3704.32 447.635C3646.1 439.065 3586.82 441.497 3529.5 454.806L3538.22 523.725C3538.22 523.725 3617.38 510.444 3654.19 520.671C3681.76 528.371 3669.74 567.28 3669.74 567.28C3626.57 552.556 3579.79 552.556 3536.62 567.28C3482.4 586.667 3427.91 663.155 3486.22 730.611C3515.38 757.169 3568.95 759.559 3623.17 717.332C3621.59 728.487 3616.97 747.477 3616.97 747.477H3720.02C3720.02 747.477 3765.01 588.923 3769.62 567.544C3774.25 546.166 3798.77 460.25 3704.32 447.635ZM3639.27 661.294C3622.52 682.674 3599.69 686.26 3586.49 679.09C3582.23 676.386 3578.55 672.815 3575.74 668.605C3572.91 664.396 3570.98 659.64 3570.1 654.641C3569.21 649.642 3569.36 644.511 3570.55 639.575C3571.74 634.637 3573.93 630.006 3577 625.972C3588.74 609.507 3633.47 608.311 3652.59 610.037C3663.42 612.693 3655.51 640.713 3639.27 661.294Z" fill="white"/>
</g>
</g>
<defs>
<clipPath id="clip0_5186_3331">
<rect width="4131" height="995" fill="white" transform="translate(0.914062)"/>
</clipPath>
</defs>
</svg>
